<mxfile host="app.diagrams.net" agent="Mozilla/5.0 (Windows NT 10.0; Win64; x64) AppleWebKit/537.36 (KHTML, like Gecko) Chrome/126.0.0.0 YaBrowser/24.7.0.0 Safari/537.36" version="24.7.16">
  <diagram name="Страница — 1" id="-wGjM574ZD-L4lAWvyHk">
    <mxGraphModel dx="1002" dy="575" grid="1" gridSize="10" guides="1" tooltips="1" connect="1" arrows="1" fold="1" page="1" pageScale="1" pageWidth="827" pageHeight="1169" math="0" shadow="0">
      <root>
        <mxCell id="0" />
        <mxCell id="1" parent="0" />
        <mxCell id="KBV5rF9AN_-stU8wSGN3-1" value="student" style="shape=umlActor;verticalLabelPosition=bottom;verticalAlign=top;html=1;outlineConnect=0;" vertex="1" parent="1">
          <mxGeometry x="150" y="180" width="30" height="60" as="geometry" />
        </mxCell>
        <mxCell id="KBV5rF9AN_-stU8wSGN3-9" value="Fill the registration table" style="rounded=1;whiteSpace=wrap;html=1;" vertex="1" parent="1">
          <mxGeometry x="280" y="100" width="110" height="40" as="geometry" />
        </mxCell>
        <mxCell id="KBV5rF9AN_-stU8wSGN3-10" value="tutor" style="shape=umlActor;verticalLabelPosition=bottom;verticalAlign=top;html=1;outlineConnect=0;" vertex="1" parent="1">
          <mxGeometry x="670" y="100" width="30" height="60" as="geometry" />
        </mxCell>
        <mxCell id="KBV5rF9AN_-stU8wSGN3-14" value="lessons" style="rounded=1;whiteSpace=wrap;html=1;" vertex="1" parent="1">
          <mxGeometry x="280" y="50" width="110" height="40" as="geometry" />
        </mxCell>
        <mxCell id="KBV5rF9AN_-stU8wSGN3-17" value="Managers" style="shape=umlActor;verticalLabelPosition=bottom;verticalAlign=top;html=1;outlineConnect=0;" vertex="1" parent="1">
          <mxGeometry x="470" y="350" width="30" height="60" as="geometry" />
        </mxCell>
        <mxCell id="KBV5rF9AN_-stU8wSGN3-19" value="salary" style="rounded=1;whiteSpace=wrap;html=1;" vertex="1" parent="1">
          <mxGeometry x="540" y="280" width="90" height="40" as="geometry" />
        </mxCell>
        <mxCell id="KBV5rF9AN_-stU8wSGN3-20" value="Keep track of working hours" style="rounded=1;whiteSpace=wrap;html=1;" vertex="1" parent="1">
          <mxGeometry x="435" y="240" width="100" height="40" as="geometry" />
        </mxCell>
        <mxCell id="KBV5rF9AN_-stU8wSGN3-23" value="Technical support" style="shape=umlActor;verticalLabelPosition=bottom;verticalAlign=top;html=1;outlineConnect=0;" vertex="1" parent="1">
          <mxGeometry x="270" y="380" width="30" height="60" as="geometry" />
        </mxCell>
        <mxCell id="KBV5rF9AN_-stU8wSGN3-25" value="Control technical issues&amp;nbsp;" style="rounded=1;whiteSpace=wrap;html=1;" vertex="1" parent="1">
          <mxGeometry x="300" y="310" width="90" height="40" as="geometry" />
        </mxCell>
        <mxCell id="KBV5rF9AN_-stU8wSGN3-27" value="homework" style="rounded=1;whiteSpace=wrap;html=1;" vertex="1" parent="1">
          <mxGeometry x="285" y="150" width="100" height="40" as="geometry" />
        </mxCell>
        <mxCell id="KBV5rF9AN_-stU8wSGN3-29" value="Create tasks for students" style="rounded=1;whiteSpace=wrap;html=1;" vertex="1" parent="1">
          <mxGeometry x="285" y="200" width="100" height="40" as="geometry" />
        </mxCell>
        <mxCell id="KBV5rF9AN_-stU8wSGN3-42" value="" style="endArrow=none;html=1;rounded=0;entryX=0;entryY=0.75;entryDx=0;entryDy=0;" edge="1" parent="1" target="KBV5rF9AN_-stU8wSGN3-14">
          <mxGeometry width="50" height="50" relative="1" as="geometry">
            <mxPoint x="180" y="180" as="sourcePoint" />
            <mxPoint x="220" y="130" as="targetPoint" />
          </mxGeometry>
        </mxCell>
        <mxCell id="KBV5rF9AN_-stU8wSGN3-43" value="" style="endArrow=none;html=1;rounded=0;entryX=0;entryY=0.5;entryDx=0;entryDy=0;" edge="1" parent="1" source="KBV5rF9AN_-stU8wSGN3-1" target="KBV5rF9AN_-stU8wSGN3-9">
          <mxGeometry width="50" height="50" relative="1" as="geometry">
            <mxPoint x="180" y="210" as="sourcePoint" />
            <mxPoint x="230" y="160" as="targetPoint" />
          </mxGeometry>
        </mxCell>
        <mxCell id="KBV5rF9AN_-stU8wSGN3-44" value="" style="endArrow=none;html=1;rounded=0;" edge="1" parent="1" source="KBV5rF9AN_-stU8wSGN3-1">
          <mxGeometry width="50" height="50" relative="1" as="geometry">
            <mxPoint x="230" y="220" as="sourcePoint" />
            <mxPoint x="280" y="170" as="targetPoint" />
          </mxGeometry>
        </mxCell>
        <mxCell id="KBV5rF9AN_-stU8wSGN3-45" value="" style="endArrow=none;html=1;rounded=0;exitX=1;exitY=0.5;exitDx=0;exitDy=0;" edge="1" parent="1" source="KBV5rF9AN_-stU8wSGN3-14" target="KBV5rF9AN_-stU8wSGN3-10">
          <mxGeometry width="50" height="50" relative="1" as="geometry">
            <mxPoint x="400" y="70" as="sourcePoint" />
            <mxPoint x="660" y="110" as="targetPoint" />
          </mxGeometry>
        </mxCell>
        <mxCell id="KBV5rF9AN_-stU8wSGN3-46" value="" style="endArrow=none;html=1;rounded=0;" edge="1" parent="1">
          <mxGeometry width="50" height="50" relative="1" as="geometry">
            <mxPoint x="390" y="120" as="sourcePoint" />
            <mxPoint x="670" y="130" as="targetPoint" />
          </mxGeometry>
        </mxCell>
        <mxCell id="KBV5rF9AN_-stU8wSGN3-47" value="" style="endArrow=none;html=1;rounded=0;exitX=1;exitY=0.5;exitDx=0;exitDy=0;" edge="1" parent="1" source="KBV5rF9AN_-stU8wSGN3-27" target="KBV5rF9AN_-stU8wSGN3-10">
          <mxGeometry width="50" height="50" relative="1" as="geometry">
            <mxPoint x="390" y="170" as="sourcePoint" />
            <mxPoint x="660" y="130" as="targetPoint" />
          </mxGeometry>
        </mxCell>
        <mxCell id="KBV5rF9AN_-stU8wSGN3-48" value="" style="endArrow=none;html=1;rounded=0;exitX=1;exitY=0.5;exitDx=0;exitDy=0;" edge="1" parent="1" source="KBV5rF9AN_-stU8wSGN3-29" target="KBV5rF9AN_-stU8wSGN3-10">
          <mxGeometry width="50" height="50" relative="1" as="geometry">
            <mxPoint x="390" y="220" as="sourcePoint" />
            <mxPoint x="660" y="140" as="targetPoint" />
          </mxGeometry>
        </mxCell>
        <mxCell id="KBV5rF9AN_-stU8wSGN3-49" value="" style="endArrow=none;html=1;rounded=0;exitX=0.556;exitY=0;exitDx=0;exitDy=0;exitPerimeter=0;" edge="1" parent="1" source="KBV5rF9AN_-stU8wSGN3-19" target="KBV5rF9AN_-stU8wSGN3-10">
          <mxGeometry width="50" height="50" relative="1" as="geometry">
            <mxPoint x="590" y="270" as="sourcePoint" />
            <mxPoint x="640" y="220" as="targetPoint" />
          </mxGeometry>
        </mxCell>
        <mxCell id="KBV5rF9AN_-stU8wSGN3-50" value="" style="endArrow=none;html=1;rounded=0;entryX=0.161;entryY=0.988;entryDx=0;entryDy=0;entryPerimeter=0;" edge="1" parent="1" source="KBV5rF9AN_-stU8wSGN3-17" target="KBV5rF9AN_-stU8wSGN3-19">
          <mxGeometry width="50" height="50" relative="1" as="geometry">
            <mxPoint x="510" y="410" as="sourcePoint" />
            <mxPoint x="560" y="360" as="targetPoint" />
          </mxGeometry>
        </mxCell>
        <mxCell id="KBV5rF9AN_-stU8wSGN3-51" value="" style="endArrow=none;html=1;rounded=0;entryX=0.567;entryY=0.934;entryDx=0;entryDy=0;entryPerimeter=0;" edge="1" parent="1" source="KBV5rF9AN_-stU8wSGN3-17" target="KBV5rF9AN_-stU8wSGN3-20">
          <mxGeometry width="50" height="50" relative="1" as="geometry">
            <mxPoint x="440" y="350" as="sourcePoint" />
            <mxPoint x="490" y="300" as="targetPoint" />
          </mxGeometry>
        </mxCell>
        <mxCell id="KBV5rF9AN_-stU8wSGN3-52" value="" style="endArrow=none;html=1;rounded=0;entryX=0.25;entryY=1;entryDx=0;entryDy=0;" edge="1" parent="1" source="KBV5rF9AN_-stU8wSGN3-23" target="KBV5rF9AN_-stU8wSGN3-25">
          <mxGeometry width="50" height="50" relative="1" as="geometry">
            <mxPoint x="230" y="410" as="sourcePoint" />
            <mxPoint x="280" y="360" as="targetPoint" />
          </mxGeometry>
        </mxCell>
      </root>
    </mxGraphModel>
  </diagram>
</mxfile>
